<svg
        xmlns="http://www.w3.org/2000/svg"
        xmlns:xlink="http://www.w3.org/1999/xlink"
        width="16px" height="15px">
    <path fill-rule="evenodd"
          d="M13.500,1.998 L2.500,2.000 C2.223,2.000 2.000,2.222 2.000,2.498 L2.000,9.499 C2.000,9.775 2.223,9.999 2.500,9.999 L13.500,9.999 C13.776,9.999 14.000,9.775 14.000,9.499 L14.000,2.498 C14.000,2.222 13.776,1.998 13.500,1.998 ZM13.500,9.501 L2.500,9.501 L2.500,2.498 L13.500,2.498 L13.500,9.501 ZM14.500,-0.000 L1.500,-0.000 C0.671,-0.000 -0.000,0.671 -0.000,1.500 L-0.000,11.501 C-0.000,12.328 0.669,12.999 1.495,13.001 L6.500,13.001 L6.500,13.609 L3.379,14.014 C3.156,14.070 3.000,14.270 3.000,14.500 C3.000,14.776 3.223,15.000 3.500,15.000 L12.500,15.000 C12.776,15.000 13.000,14.776 13.000,14.500 C13.000,14.270 12.844,14.070 12.621,14.014 L9.500,13.609 L9.500,13.001 L14.505,13.001 C15.331,12.999 16.000,12.328 16.000,11.501 L16.000,1.500 C16.000,0.671 15.328,-0.000 14.500,-0.000 ZM15.000,11.501 C15.000,11.777 14.775,12.001 14.500,12.001 L1.500,12.001 C1.224,12.001 1.000,11.777 1.000,11.501 L1.000,1.500 C1.000,1.224 1.224,1.000 1.500,1.000 L14.500,1.000 C14.775,1.000 15.000,1.224 15.000,1.500 L15.000,11.501 Z"/>
</svg>