<svg
        xmlns="http://www.w3.org/2000/svg"
        xmlns:xlink="http://www.w3.org/1999/xlink"
        width="18px" height="20px">
    <path fill-rule="evenodd"
          d="M18.000,-0.000 L18.000,20.000 L7.891,20.000 C7.657,20.000 7.468,19.811 7.468,19.578 C7.468,19.345 7.657,19.156 7.891,19.156 L17.155,19.156 L17.155,0.843 L7.855,0.843 C7.622,0.843 7.433,0.654 7.433,0.422 C7.433,0.188 7.622,-0.000 7.855,-0.000 L18.000,-0.000 ZM7.583,10.422 L0.423,10.422 C0.189,10.422 -0.000,10.233 -0.000,10.000 C-0.000,9.767 0.189,9.578 0.423,9.578 L7.583,9.578 L7.583,6.414 C7.583,5.900 7.912,5.666 8.218,5.666 C8.340,5.666 8.528,5.704 8.737,5.877 L12.828,9.293 C13.046,9.474 13.169,9.731 13.169,10.000 C13.169,10.269 13.046,10.526 12.828,10.707 L8.737,14.125 C8.528,14.298 8.340,14.334 8.218,14.334 C7.912,14.334 7.583,14.099 7.583,13.587 L7.583,10.422 L7.583,10.422 ZM8.428,13.277 L12.286,10.059 C12.310,10.039 12.324,10.017 12.324,9.999 C12.324,9.980 12.310,9.959 12.286,9.938 L8.431,6.721 L8.428,13.277 Z"/>
</svg>