<svg
        xmlns="http://www.w3.org/2000/svg"
        xmlns:xlink="http://www.w3.org/1999/xlink"
        width="15px" height="13px">
    <path fill-rule="evenodd"
          d="M14.896,11.656 L8.371,0.490 C8.209,0.196 7.897,0.008 7.550,-0.000 L7.525,-0.000 C7.187,-0.000 6.875,0.167 6.702,0.446 L0.133,11.610 C-0.044,11.895 -0.047,12.246 0.121,12.534 C0.292,12.822 0.611,13.000 0.957,13.000 L14.048,13.000 C14.382,13.000 14.693,12.830 14.867,12.556 C15.044,12.280 15.051,11.939 14.896,11.656 L14.896,11.656 ZM0.957,12.079 L7.524,0.916 L14.048,12.079 L0.957,12.079 ZM7.507,9.192 C6.947,9.192 6.556,9.567 6.556,10.114 C6.556,10.641 6.936,11.036 7.487,11.036 L7.507,11.036 C8.078,11.036 8.448,10.642 8.448,10.114 C8.437,9.566 8.067,9.192 7.507,9.192 ZM6.905,8.687 L8.111,8.687 L8.342,4.100 L6.672,4.100 L6.905,8.687 Z"/>
</svg>