<svg
        xmlns="http://www.w3.org/2000/svg"
        xmlns:xlink="http://www.w3.org/1999/xlink"
        width="31px" height="28px">
    <path fill-rule="evenodd"  fill="rgb(0, 0, 0)"
          d="M30.336,4.011 L5.757,4.011 C5.710,4.011 5.666,4.029 5.621,4.039 L4.621,0.709 C4.610,0.673 4.586,0.647 4.570,0.613 C4.543,0.271 4.265,-0.000 3.917,-0.000 C3.916,-0.000 3.915,-0.000 3.914,-0.000 L0.662,0.014 C0.294,0.016 -0.001,0.315 0.000,0.683 C0.001,1.050 0.298,1.347 0.664,1.347 C0.665,1.347 0.666,1.347 0.667,1.347 L3.422,1.335 L9.781,22.505 C9.149,23.084 8.746,23.909 8.746,24.835 C8.746,26.582 10.158,28.000 11.901,28.000 C13.644,28.000 15.057,26.582 15.057,24.835 C15.057,24.379 14.957,23.948 14.784,23.557 L23.965,23.557 C23.792,23.949 23.693,24.379 23.693,24.835 C23.693,26.582 25.105,28.000 26.848,28.000 C28.590,28.000 30.003,26.582 30.003,24.835 C30.003,23.087 28.590,21.670 26.848,21.670 C26.186,21.670 25.573,21.875 25.066,22.225 L13.683,22.225 C13.176,21.875 12.563,21.670 11.901,21.670 C11.573,21.670 11.262,21.734 10.964,21.828 L10.015,18.670 L26.751,18.657 C27.044,18.657 27.285,18.463 27.373,18.199 C27.395,18.157 27.420,18.116 27.433,18.068 L30.976,4.964 C30.998,4.880 31.001,4.797 30.992,4.717 C30.992,4.702 31.000,4.691 31.000,4.678 C31.000,4.310 30.703,4.011 30.336,4.011 ZM26.849,23.002 C27.856,23.002 28.676,23.823 28.676,24.834 C28.676,25.845 27.856,26.667 26.849,26.667 C25.841,26.667 25.022,25.845 25.022,24.834 C25.022,23.823 25.841,23.002 26.849,23.002 ZM11.902,23.002 C12.910,23.002 13.729,23.823 13.729,24.834 C13.729,25.845 12.910,26.667 11.902,26.667 C10.894,26.667 10.075,25.845 10.075,24.834 C10.075,23.823 10.894,23.002 11.902,23.002 ZM26.258,17.325 L9.616,17.338 L6.013,5.344 L29.497,5.344 L26.258,17.325 Z"/>
</svg>