<svg
        xmlns="http://www.w3.org/2000/svg"
        xmlns:xlink="http://www.w3.org/1999/xlink"
        width="22px" height="19px">
    <path fill-rule="evenodd"
          d="M21.141,15.906 L5.271,15.906 L5.271,18.140 C5.271,18.615 4.886,19.000 4.411,19.000 C3.937,19.000 3.552,18.615 3.552,18.140 L3.552,15.906 L0.859,15.906 C0.385,15.906 -0.000,15.521 -0.000,15.046 C-0.000,14.572 0.385,14.187 0.859,14.187 L3.552,14.187 L3.552,0.859 C3.552,0.384 3.937,-0.000 4.411,-0.000 C4.886,-0.000 5.271,0.384 5.271,0.859 L5.271,14.187 L21.141,14.187 C21.615,14.187 22.000,14.572 22.000,15.046 C22.000,15.521 21.615,15.906 21.141,15.906 ZM19.979,7.092 L18.427,10.205 C18.552,10.388 18.626,10.610 18.626,10.849 C18.626,11.481 18.112,11.994 17.480,11.994 C16.848,11.994 16.334,11.481 16.334,10.849 C16.334,10.684 16.370,10.527 16.433,10.385 L15.691,9.377 C15.634,9.386 15.576,9.392 15.517,9.392 C15.452,9.392 15.389,9.385 15.327,9.375 L14.530,10.398 C14.589,10.537 14.622,10.689 14.622,10.849 C14.622,11.480 14.108,11.994 13.476,11.994 C12.844,11.994 12.330,11.480 12.330,10.849 C12.330,10.637 12.389,10.438 12.490,10.268 L10.372,5.902 L8.299,10.897 C8.447,11.090 8.536,11.331 8.536,11.592 C8.536,12.224 8.022,12.738 7.391,12.738 C6.759,12.738 6.245,12.224 6.245,11.592 C6.245,11.011 6.680,10.531 7.241,10.457 L9.435,5.171 C9.300,4.983 9.220,4.754 9.220,4.506 C9.220,3.874 9.734,3.360 10.366,3.360 C10.998,3.360 11.512,3.874 11.512,4.506 C11.512,4.756 11.430,4.987 11.293,5.176 L13.490,9.704 C13.531,9.704 13.572,9.707 13.612,9.712 L14.444,8.644 C14.397,8.520 14.371,8.386 14.371,8.246 C14.371,7.615 14.885,7.100 15.517,7.100 C16.149,7.100 16.663,7.615 16.663,8.246 C16.663,8.392 16.634,8.530 16.585,8.658 L17.359,9.709 C17.370,9.708 17.383,9.708 17.395,9.707 L18.948,6.593 C18.823,6.410 18.750,6.189 18.750,5.950 C18.750,5.319 19.264,4.805 19.896,4.805 C20.527,4.805 21.041,5.319 21.041,5.950 C21.041,6.554 20.572,7.049 19.979,7.092 Z"/>
</svg>