<svg
        xmlns="http://www.w3.org/2000/svg"
        xmlns:xlink="http://www.w3.org/1999/xlink"
        width="17px" height="17px">
    <path fill-rule="evenodd"
          d="M16.565,10.649 C16.812,10.699 17.000,10.915 17.000,11.173 L17.000,11.531 C17.000,11.825 16.755,12.066 16.456,12.066 L0.544,12.066 C0.245,12.066 -0.000,11.825 -0.000,11.531 L-0.000,11.173 C-0.000,10.936 0.159,10.734 0.378,10.664 C0.418,10.652 0.506,10.629 0.506,10.562 L0.506,1.538 C0.506,1.425 0.369,1.403 0.308,1.374 C0.126,1.287 -0.000,1.104 -0.000,0.893 L-0.000,0.534 C-0.000,0.240 0.245,-0.000 0.544,-0.000 L16.456,-0.000 C16.755,-0.000 17.000,0.240 17.000,0.534 L17.000,0.893 C17.000,1.124 16.849,1.321 16.639,1.396 C16.593,1.412 16.494,1.443 16.494,1.559 L16.494,10.571 C16.494,10.647 16.542,10.645 16.565,10.649 ZM15.570,1.591 C15.570,1.450 15.405,1.457 15.405,1.457 L1.565,1.457 C1.565,1.457 1.430,1.474 1.430,1.570 C1.430,3.828 1.430,8.286 1.430,10.524 C1.430,10.625 1.547,10.602 1.547,10.602 L15.482,10.602 C15.482,10.602 15.570,10.611 15.570,10.534 C15.570,8.298 15.570,3.844 15.570,1.591 ZM11.571,6.981 C11.435,7.157 11.214,7.262 10.980,7.262 C10.861,7.262 10.744,7.233 10.642,7.180 L7.880,5.736 C7.880,5.736 7.861,5.722 7.846,5.743 C7.405,6.392 6.052,8.319 6.038,8.338 C5.882,8.562 5.569,8.724 5.293,8.724 L3.328,8.724 C3.076,8.724 2.870,8.522 2.870,8.274 C2.870,8.025 3.076,7.823 3.328,7.823 L5.262,7.823 C5.292,7.823 5.309,7.790 5.310,7.789 L7.201,5.073 C7.335,4.880 7.559,4.766 7.800,4.766 C7.917,4.766 8.033,4.794 8.135,4.847 L10.913,6.300 C10.913,6.300 10.933,6.316 10.946,6.299 C11.525,5.531 13.307,3.260 13.307,3.260 C13.395,3.147 13.528,3.083 13.672,3.083 C13.773,3.083 13.869,3.115 13.950,3.175 C14.047,3.248 14.110,3.354 14.126,3.474 C14.142,3.593 14.110,3.712 14.036,3.807 L11.571,6.981 ZM7.906,13.992 C7.906,13.992 8.011,13.934 8.011,13.868 C8.011,13.675 8.011,13.097 8.011,13.097 C8.011,12.832 8.230,12.843 8.500,12.843 C8.770,12.843 8.989,12.832 8.989,13.097 C8.989,13.097 8.989,13.675 8.989,13.868 C8.989,13.930 9.069,13.975 9.069,13.975 L12.189,16.125 C12.411,16.277 12.464,16.577 12.309,16.795 C12.214,16.928 12.062,17.000 11.908,17.000 C11.811,17.000 11.713,16.971 11.627,16.913 L9.023,15.118 C9.023,15.118 8.989,15.102 8.989,15.155 C8.989,15.496 8.989,16.519 8.989,16.519 C8.989,16.784 8.770,17.000 8.500,17.000 C8.230,17.000 8.011,16.784 8.011,16.519 C8.011,16.519 8.011,15.504 8.011,15.165 C8.011,15.092 7.964,15.127 7.964,15.127 L5.373,16.913 C5.287,16.971 5.189,17.000 5.092,17.000 C4.938,17.000 4.786,16.928 4.691,16.795 C4.536,16.577 4.589,16.277 4.811,16.125 L7.906,13.992 Z"/>
</svg>