<svg
        xmlns="http://www.w3.org/2000/svg"
        xmlns:xlink="http://www.w3.org/1999/xlink"
        width="20px" height="17px">
    <path fill-rule="evenodd"
          d="M10.000,14.875 L13.535,9.795 C15.488,7.276 15.488,3.543 13.535,1.518 C11.583,-0.507 8.417,-0.507 6.464,1.518 C4.512,3.543 4.472,7.194 6.464,9.795 L10.000,14.875 ZM7.107,2.185 C8.705,0.528 11.295,0.528 12.893,2.185 C14.490,3.842 14.470,6.861 12.893,9.031 L10.000,13.406 L7.107,9.031 C5.509,6.881 5.509,3.842 7.107,2.185 ZM10.000,8.043 C11.506,8.043 12.727,6.777 12.727,5.215 C12.727,3.653 11.506,2.386 10.000,2.386 C8.494,2.386 7.273,3.653 7.273,5.215 C7.273,6.777 8.494,8.043 10.000,8.043 ZM10.000,3.329 C11.004,3.329 11.818,4.173 11.818,5.215 C11.818,6.256 11.004,7.100 10.000,7.100 C8.996,7.100 8.182,6.256 8.182,5.215 C8.182,4.173 8.996,3.329 10.000,3.329 ZM17.727,12.285 L13.182,12.285 C12.931,12.285 12.727,12.496 12.727,12.757 C12.727,13.018 12.931,13.229 13.182,13.229 L17.727,13.229 C18.480,13.229 19.091,13.862 19.091,14.643 C19.091,15.424 18.480,16.057 17.727,16.057 L2.273,16.057 C1.519,16.057 0.909,15.424 0.909,14.643 C0.909,13.862 1.519,13.229 2.273,13.229 L6.818,13.229 C7.069,13.229 7.273,13.018 7.273,12.757 C7.273,12.496 7.069,12.285 6.818,12.285 L2.273,12.285 C1.018,12.285 -0.000,13.341 -0.000,14.643 C-0.000,15.945 1.018,17.000 2.273,17.000 L17.727,17.000 C18.982,17.000 20.000,15.945 20.000,14.643 C20.000,13.341 18.982,12.285 17.727,12.285 Z"/>
</svg>