<svg
        xmlns="http://www.w3.org/2000/svg"
        xmlns:xlink="http://www.w3.org/1999/xlink"
        width="266px" height="84px">
    <path fill-rule="evenodd" stroke="rgb(255, 73, 74)" stroke-width="2px" stroke-linecap="butt" stroke-linejoin="miter"
          fill="none"
          d="M3.020,49.785 L22.000,64.000 L51.000,31.000 L63.000,46.000 L73.239,78.511 L105.706,62.636 L127.000,56.000 L141.000,12.000 L159.000,34.000 L184.985,46.005 L205.000,31.000 L239.000,39.000 L261.000,48.000 "/>
    <path class="statistics__graph2_point" fill-rule="evenodd" fill="rgb(255, 73, 74)"
          d="M21.969,60.937 C23.850,60.937 25.375,62.462 25.375,64.344 C25.375,66.225 23.850,67.750 21.969,67.750 C20.088,67.750 18.563,66.225 18.563,64.344 C18.563,62.462 20.088,60.937 21.969,60.937 Z"/>
    <path class="statistics__graph2_point" fill-rule="evenodd" fill="rgb(255, 73, 74)"
          d="M3.391,46.750 C5.263,46.750 6.781,48.275 6.781,50.156 C6.781,52.037 5.263,53.562 3.391,53.562 C1.518,53.562 0.000,52.037 0.000,50.156 C0.000,48.275 1.518,46.750 3.391,46.750 Z"/>
    <path class="statistics__graph2_point" fill-rule="evenodd" fill="rgb(255, 73, 74)"
          d="M50.000,28.906 C51.881,28.906 53.406,30.431 53.406,32.312 C53.406,34.194 51.881,35.719 50.000,35.719 C48.119,35.719 46.594,34.194 46.594,32.312 C46.594,30.431 48.119,28.906 50.000,28.906 Z"/>
    <path class="statistics__graph2_point" fill-rule="evenodd" fill="rgb(255, 73, 74)"
          d="M73.609,75.500 C75.482,75.500 77.000,77.018 77.000,78.891 C77.000,80.763 75.482,82.281 73.609,82.281 C71.737,82.281 70.219,80.763 70.219,78.891 C70.219,77.018 71.737,75.500 73.609,75.500 Z"/>
    <path class="statistics__graph2_point" fill-rule="evenodd" fill="rgb(255, 73, 74)"
          d="M60.516,41.656 C62.388,41.656 63.906,43.181 63.906,45.062 C63.906,46.944 62.388,48.469 60.516,48.469 C58.643,48.469 57.125,46.944 57.125,45.062 C57.125,43.181 58.643,41.656 60.516,41.656 Z"/>
    <path class="statistics__graph2_point" fill-rule="evenodd" fill="rgb(255, 73, 74)"
          d="M106.078,59.625 C107.951,59.625 109.469,61.143 109.469,63.016 C109.469,64.888 107.951,66.406 106.078,66.406 C104.206,66.406 102.688,64.888 102.688,63.016 C102.688,61.143 104.206,59.625 106.078,59.625 Z"/>
    <path class="statistics__graph2_point" fill-rule="evenodd" fill="rgb(255, 73, 74)"
          d="M126.922,52.875 C128.794,52.875 130.312,54.400 130.312,56.281 C130.312,58.162 128.794,59.687 126.922,59.687 C125.049,59.687 123.531,58.162 123.531,56.281 C123.531,54.400 125.049,52.875 126.922,52.875 Z"/>
    <path class="statistics__graph2_point" fill-rule="evenodd" fill="rgb(255, 73, 74)"
          d="M140.531,11.031 C142.412,11.031 143.937,12.549 143.937,14.422 C143.937,16.294 142.412,17.812 140.531,17.812 C138.650,17.812 137.125,16.294 137.125,14.422 C137.125,12.549 138.650,11.031 140.531,11.031 Z"/>
    <path class="statistics__graph2_point" fill-rule="evenodd" fill="rgb(255, 73, 74)"
          d="M160.000,30.594 C161.881,30.594 163.406,32.119 163.406,34.000 C163.406,35.881 161.881,37.406 160.000,37.406 C158.119,37.406 156.594,35.881 156.594,34.000 C156.594,32.119 158.119,30.594 160.000,30.594 Z"/>
    <path opacity="0.502" fill="rgb(255, 73, 74)"
          d="M159.984,26.812 C163.945,26.812 167.156,30.030 167.156,34.000 C167.156,37.969 163.945,41.187 159.984,41.187 C156.023,41.187 152.813,37.969 152.813,34.000 C152.813,30.030 156.023,26.812 159.984,26.812 Z"/>
    <path class="statistics__graph2_point" fill-rule="evenodd" fill="rgb(255, 73, 74)"
          d="M184.609,44.500 C186.482,44.500 188.000,46.025 188.000,47.906 C188.000,49.787 186.482,51.312 184.609,51.312 C182.737,51.312 181.219,49.787 181.219,47.906 C181.219,46.025 182.737,44.500 184.609,44.500 Z"/>
    <path class="statistics__graph2_point" fill-rule="evenodd" fill="rgb(255, 73, 74)"
          d="M205.750,28.500 C207.631,28.500 209.156,30.025 209.156,31.906 C209.156,33.787 207.631,35.312 205.750,35.312 C203.869,35.312 202.344,33.787 202.344,31.906 C202.344,30.025 203.869,28.500 205.750,28.500 Z"/>
    <path class="statistics__graph2_point" fill-rule="evenodd" fill="rgb(255, 73, 74)"
          d="M230.094,35.719 C231.975,35.719 233.500,37.244 233.500,39.125 C233.500,41.006 231.975,42.531 230.094,42.531 C228.213,42.531 226.688,41.006 226.688,39.125 C226.688,37.244 228.213,35.719 230.094,35.719 Z"/>
    <path class="statistics__graph2_point" fill-rule="evenodd" fill="rgb(255, 73, 74)"
          d="M260.953,45.531 C262.826,45.531 264.344,47.049 264.344,48.922 C264.344,50.794 262.826,52.312 260.953,52.312 C259.081,52.312 257.563,50.794 257.563,48.922 C257.563,47.049 259.081,45.531 260.953,45.531 Z"/>
    <path class="statistics__graph2_point" fill-rule="evenodd" fill="rgb(49, 49, 49)"
          d="M183.685,17.000 L164.220,17.000 L162.221,20.287 L160.230,17.000 L145.315,17.000 C140.723,17.000 137.000,13.277 137.000,8.684 L137.000,8.315 C137.000,3.723 140.723,-0.000 145.315,-0.000 L183.685,-0.000 C188.277,-0.000 192.000,3.723 192.000,8.315 L192.000,8.684 C192.000,13.277 188.277,17.000 183.685,17.000 Z"/>
    <text kerning="auto" fill="rgb(0, 0, 0)"
          transform="matrix( 0.75504322766571, 0, 0, 0.75594833446635,152.489798270893, 10.6299442556084)"
          font-size="10.583px">
        <tspan font-size="10.583px" font-family="Open Sans" fill="#FFFFFF">&#36;&#51;&#46;&#56;&#55;&#52;</tspan>
    </text>
</svg>