<svg
        xmlns="http://www.w3.org/2000/svg"
        xmlns:xlink="http://www.w3.org/1999/xlink"
        width="12px" height="12px">
    <path fill-rule="evenodd"  fill="rgb(84, 84, 84)"
          d="M4.451,-0.005 C6.912,-0.005 8.907,1.990 8.907,4.450 C8.907,5.509 8.535,6.481 7.918,7.247 L10.863,10.191 C11.048,10.376 11.048,10.677 10.863,10.862 C10.678,11.047 10.377,11.047 10.192,10.862 L7.247,7.917 C6.482,8.535 5.510,8.905 4.451,8.905 C1.991,8.905 -0.004,6.911 -0.004,4.450 C-0.004,1.990 1.991,-0.005 4.451,-0.005 ZM4.451,8.220 C6.530,8.220 8.221,6.529 8.221,4.450 C8.221,2.371 6.530,0.680 4.451,0.680 C2.372,0.680 0.681,2.371 0.681,4.450 C0.681,6.529 2.372,8.220 4.451,8.220 Z"/>
</svg>