<svg
        xmlns="http://www.w3.org/2000/svg"
        xmlns:xlink="http://www.w3.org/1999/xlink"
        width="14px" height="15px">
    <path fill-rule="evenodd"  fill="rgb(84, 84, 84)"
          d="M7.000,15.000 C3.143,15.000 -0.000,12.012 -0.000,8.346 C-0.000,6.067 1.204,3.960 3.239,2.734 C3.537,2.552 3.931,2.633 4.123,2.917 C4.315,3.200 4.230,3.575 3.931,3.757 C2.269,4.760 1.279,6.472 1.289,8.346 C1.289,11.344 3.857,13.784 7.010,13.784 C10.164,13.784 12.732,11.344 12.732,8.346 C12.732,6.543 11.794,4.861 10.228,3.849 C9.930,3.666 9.855,3.281 10.058,3.008 C10.250,2.724 10.654,2.653 10.942,2.846 C12.860,4.092 14.000,6.148 14.000,8.346 C14.000,12.012 10.857,15.000 7.000,15.000 ZM7.000,9.520 C6.648,9.520 6.361,9.247 6.361,8.913 L6.361,0.607 C6.361,0.273 6.648,-0.000 7.000,-0.000 C7.352,-0.000 7.639,0.273 7.639,0.607 L7.639,8.913 C7.639,9.247 7.352,9.520 7.000,9.520 Z"/>
</svg>