<svg
        xmlns="http://www.w3.org/2000/svg"
        xmlns:xlink="http://www.w3.org/1999/xlink"
        width="15px" height="16px">
    <path fill-rule="evenodd"  fill="rgb(193, 193, 193)"
          d="M14.774,6.197 L13.914,7.089 L11.517,4.604 L12.378,3.711 C12.649,3.430 13.056,3.395 13.286,3.634 L14.849,5.255 C15.078,5.493 15.045,5.916 14.774,6.197 ZM11.118,5.018 L13.514,7.503 L7.800,13.431 C7.774,13.458 7.701,13.533 7.599,13.560 C7.587,13.566 7.575,13.571 7.563,13.575 L4.581,14.561 C4.498,14.589 4.414,14.571 4.359,14.514 C4.305,14.457 4.288,14.371 4.314,14.284 L5.264,11.191 C5.268,11.178 5.273,11.166 5.279,11.154 C5.305,11.048 5.377,10.973 5.404,10.945 L6.478,9.831 L2.851,9.831 C2.704,9.831 2.586,9.708 2.586,9.557 C2.586,9.405 2.704,9.282 2.851,9.282 L7.007,9.282 L11.118,5.018 ZM7.063,13.240 L5.588,11.710 L5.192,12.998 L5.821,13.651 L7.063,13.240 ZM11.026,6.006 C10.941,5.918 10.804,5.918 10.719,6.006 L6.264,10.626 C6.179,10.714 6.179,10.857 6.264,10.945 C6.349,11.033 6.487,11.033 6.571,10.945 L11.026,6.324 C11.111,6.236 11.111,6.093 11.026,6.006 ZM10.757,14.802 C10.757,14.967 10.627,15.102 10.468,15.102 L5.212,15.102 L4.737,15.259 C4.642,15.290 4.544,15.307 4.445,15.307 C4.237,15.307 4.042,15.232 3.883,15.102 L1.155,15.102 C0.996,15.102 0.866,14.968 0.866,14.802 L0.866,2.221 C0.866,2.055 0.995,1.921 1.155,1.921 L2.238,1.921 L2.238,2.395 C2.238,2.561 2.367,2.695 2.526,2.695 C2.686,2.695 2.815,2.561 2.815,2.395 L2.815,1.921 L4.476,1.921 L4.476,2.395 C4.476,2.561 4.605,2.695 4.765,2.695 C4.924,2.695 5.053,2.561 5.053,2.395 L5.053,1.921 L6.497,1.921 L6.497,2.395 C6.497,2.561 6.627,2.695 6.786,2.695 C6.946,2.695 7.075,2.561 7.075,2.395 L7.075,1.921 L8.664,1.921 L8.664,2.395 C8.664,2.561 8.793,2.695 8.952,2.695 C9.112,2.695 9.241,2.561 9.241,2.395 L9.241,1.921 L10.469,1.921 C10.628,1.921 10.757,2.055 10.757,2.221 L10.757,4.296 L11.060,3.982 L11.624,3.397 L11.624,2.221 C11.624,1.560 11.106,1.022 10.469,1.022 L9.241,1.022 L9.241,0.299 C9.241,0.133 9.112,-0.001 8.952,-0.001 C8.793,-0.001 8.664,0.133 8.664,0.299 L8.664,1.022 L7.075,1.022 L7.075,0.299 C7.075,0.133 6.946,-0.001 6.786,-0.001 C6.626,-0.001 6.497,0.133 6.497,0.299 L6.497,1.022 L5.053,1.022 L5.053,0.299 C5.053,0.133 4.924,-0.001 4.764,-0.001 C4.605,-0.001 4.475,0.133 4.475,0.299 L4.475,1.022 L2.815,1.022 L2.815,0.299 C2.815,0.133 2.686,-0.001 2.526,-0.001 C2.367,-0.001 2.237,0.133 2.237,0.299 L2.237,1.022 L1.154,1.022 C0.518,1.022 -0.001,1.560 -0.001,2.221 L-0.001,14.802 C-0.001,15.463 0.518,16.000 1.154,16.000 L10.468,16.000 C11.105,16.000 11.623,15.463 11.623,14.802 L11.623,10.440 L10.756,11.339 L10.756,14.802 L10.757,14.802 ZM8.501,4.612 L2.851,4.612 C2.704,4.612 2.586,4.735 2.586,4.886 C2.586,5.038 2.704,5.161 2.851,5.161 L8.501,5.161 C8.647,5.161 8.766,5.038 8.766,4.886 C8.766,4.735 8.647,4.612 8.501,4.612 ZM8.501,6.826 L2.851,6.826 C2.704,6.826 2.586,6.949 2.586,7.101 C2.586,7.253 2.704,7.376 2.851,7.376 L8.501,7.376 C8.647,7.376 8.766,7.253 8.766,7.101 C8.766,6.949 8.647,6.826 8.501,6.826 Z"/>
</svg>