<svg
        xmlns="http://www.w3.org/2000/svg"
        xmlns:xlink="http://www.w3.org/1999/xlink"
        width="15px" height="15px">
    <path fill-rule="evenodd"  fill="rgb(193, 193, 193)"
          d="M7.462,0.007 C3.323,0.028 -0.015,3.403 0.007,7.542 C0.030,11.682 3.405,15.019 7.542,14.997 C11.683,14.975 15.019,11.601 14.997,7.462 C14.974,3.322 11.602,-0.015 7.462,0.007 ZM7.536,13.777 C4.071,13.794 1.250,11.001 1.231,7.536 C1.213,4.071 4.004,1.246 7.468,1.227 C10.933,1.208 13.757,4.004 13.777,7.467 C13.795,10.933 11.000,13.757 7.536,13.777 ZM8.646,10.782 L8.615,5.179 L6.509,5.191 L6.509,5.195 L5.724,5.198 L5.730,6.424 L6.515,6.420 L6.538,10.794 L5.705,10.797 L5.712,11.968 L6.544,11.964 L6.544,11.974 L8.652,11.961 L8.652,11.953 L9.340,11.949 L9.333,10.778 L8.646,10.782 ZM7.544,4.352 C8.252,4.349 8.677,3.875 8.674,3.294 C8.656,2.698 8.241,2.243 7.560,2.246 C6.881,2.250 6.439,2.711 6.442,3.307 C6.446,3.888 6.877,4.357 7.544,4.352 Z"/>
</svg>