<svg
        xmlns="http://www.w3.org/2000/svg"
        xmlns:xlink="http://www.w3.org/1999/xlink"
        width="17px" height="15px">
    <path fill-rule="evenodd"  fill="rgb(193, 193, 193)"
          d="M-0.000,15.000 L-0.000,10.937 C-0.000,10.764 0.136,10.624 0.303,10.624 C0.471,10.624 0.607,10.764 0.607,10.937 L0.607,14.375 L16.393,14.375 L16.393,10.937 C16.393,10.764 16.529,10.624 16.696,10.624 C16.864,10.624 17.000,10.764 17.000,10.937 L17.000,15.000 L-0.000,15.000 ZM12.143,4.373 C12.065,4.373 11.987,4.342 11.928,4.282 L8.804,1.064 L8.804,12.187 C8.804,12.360 8.667,12.499 8.500,12.499 C8.332,12.499 8.196,12.360 8.196,12.187 L8.196,1.064 L5.072,4.282 C5.013,4.342 4.935,4.373 4.857,4.373 C4.779,4.373 4.702,4.343 4.642,4.282 C4.524,4.159 4.524,3.962 4.642,3.840 L8.285,0.089 C8.313,0.060 8.347,0.037 8.384,0.021 C8.458,-0.010 8.542,-0.010 8.616,0.021 C8.653,0.037 8.687,0.060 8.715,0.089 L12.357,3.840 C12.476,3.962 12.476,4.159 12.357,4.282 C12.298,4.342 12.220,4.373 12.143,4.373 Z"/>
</svg>