<svg
        xmlns="http://www.w3.org/2000/svg"
        xmlns:xlink="http://www.w3.org/1999/xlink"
        width="19px" height="19px">
    <path fill-rule="evenodd"
          d="M10.528,-0.000 L5.541,5.779 L3.502,7.813 L3.981,8.291 C5.220,9.549 4.859,11.099 4.726,11.529 C2.604,13.622 1.637,13.823 1.523,13.840 L1.253,13.807 L1.029,14.030 C-0.089,15.146 -0.097,16.223 0.094,16.930 C0.294,17.670 0.748,18.139 0.800,18.190 C0.883,18.273 1.644,18.999 2.780,19.000 C3.566,19.000 4.308,18.656 4.986,17.980 L5.232,17.734 L5.175,17.456 C5.200,17.304 5.433,16.359 7.533,14.249 C7.669,14.181 8.066,14.008 8.592,14.008 C9.333,14.008 10.044,14.343 10.708,15.005 L10.711,15.007 L11.170,15.465 L13.208,13.430 L19.000,8.453 L10.528,-0.000 ZM6.795,13.180 L6.733,13.219 L6.681,13.271 C4.569,15.379 4.009,16.592 3.899,17.224 C3.528,17.545 3.152,17.707 2.780,17.707 C2.171,17.706 1.716,17.276 1.716,17.276 C1.713,17.273 1.455,17.003 1.345,16.594 C1.209,16.090 1.356,15.601 1.795,15.104 C2.396,14.985 3.634,14.448 5.747,12.339 L5.841,12.245 L5.890,12.122 C5.912,12.067 6.173,11.395 6.174,10.480 L8.418,12.719 C7.490,12.762 6.867,13.135 6.795,13.180 ZM11.170,13.636 L5.335,7.813 L6.383,6.767 L12.219,12.591 L11.170,13.636 ZM13.194,11.736 L7.238,5.792 L10.599,1.899 L11.473,2.771 L8.680,5.877 L9.644,6.740 L12.390,3.686 L13.233,4.527 L12.044,5.831 L13.003,6.701 L14.150,5.442 L17.097,8.382 L13.194,11.736 Z"/>
</svg>