<svg
        xmlns="http://www.w3.org/2000/svg"
        xmlns:xlink="http://www.w3.org/1999/xlink"
        width="18px" height="18px">
    <path fill-rule="evenodd"
          d="M9.000,-0.000 C4.000,-0.000 -0.000,4.000 -0.000,9.000 C-0.000,14.000 4.000,18.000 9.000,18.000 C9.800,18.000 10.500,17.300 10.500,16.500 C10.500,16.100 10.400,15.800 10.100,15.500 C9.900,15.200 9.700,14.900 9.700,14.500 C9.700,13.700 10.400,13.000 11.200,13.000 L13.000,13.000 C15.800,13.000 18.000,10.800 18.000,8.000 C18.000,3.600 14.000,-0.000 9.000,-0.000 ZM3.500,9.000 C2.700,9.000 2.000,8.300 2.000,7.500 C2.000,6.700 2.700,6.000 3.500,6.000 C4.300,6.000 5.000,6.700 5.000,7.500 C5.000,8.300 4.300,9.000 3.500,9.000 ZM6.500,5.000 C5.700,5.000 5.000,4.300 5.000,3.500 C5.000,2.700 5.700,2.000 6.500,2.000 C7.300,2.000 8.000,2.700 8.000,3.500 C8.000,4.300 7.300,5.000 6.500,5.000 ZM11.500,5.000 C10.700,5.000 10.000,4.300 10.000,3.500 C10.000,2.700 10.700,2.000 11.500,2.000 C12.300,2.000 13.000,2.700 13.000,3.500 C13.000,4.300 12.300,5.000 11.500,5.000 ZM14.500,9.000 C13.700,9.000 13.000,8.300 13.000,7.500 C13.000,6.700 13.700,6.000 14.500,6.000 C15.300,6.000 16.000,6.700 16.000,7.500 C16.000,8.300 15.300,9.000 14.500,9.000 Z"/>
</svg>