<svg
        xmlns="http://www.w3.org/2000/svg"
        xmlns:xlink="http://www.w3.org/1999/xlink"
        width="263px" height="126px">
    <path fill-rule="evenodd"  stroke="rgb(70, 179, 75)" stroke-width="2px" stroke-linecap="butt" stroke-linejoin="miter" fill="none"
          d="M3.020,83.785 L15.101,72.446 L44.548,120.071 L56.628,99.660 L73.239,112.511 L95.890,70.178 L105.706,96.636 L119.297,66.398 L135.908,116.291 L168.375,29.357 L184.985,80.005 L206.127,50.523 L219.718,75.470 L234.063,55.815 L258.225,35.404 "/>
    <path fill-rule="evenodd"  fill="rgb(47, 173, 53)"
          d="M13.969,70.937 C15.850,70.937 17.375,72.462 17.375,74.344 C17.375,76.225 15.850,77.750 13.969,77.750 C12.088,77.750 10.563,76.225 10.563,74.344 C10.563,72.462 12.088,70.937 13.969,70.937 Z"/>
    <path fill-rule="evenodd"  fill="rgb(47, 173, 53)"
          d="M3.391,80.750 C5.263,80.750 6.781,82.275 6.781,84.156 C6.781,86.037 5.263,87.562 3.391,87.562 C1.518,87.562 0.000,86.037 0.000,84.156 C0.000,82.275 1.518,80.750 3.391,80.750 Z"/>
    <path fill-rule="evenodd"  fill="rgb(47, 173, 53)"
          d="M57.000,98.906 C58.881,98.906 60.406,100.431 60.406,102.312 C60.406,104.194 58.881,105.719 57.000,105.719 C55.119,105.719 53.594,104.194 53.594,102.312 C53.594,100.431 55.119,98.906 57.000,98.906 Z"/>
    <path fill-rule="evenodd"  fill="rgb(47, 173, 53)"
          d="M73.609,109.500 C75.482,109.500 77.000,111.018 77.000,112.891 C77.000,114.763 75.482,116.281 73.609,116.281 C71.737,116.281 70.219,114.763 70.219,112.891 C70.219,111.018 71.737,109.500 73.609,109.500 Z"/>
    <path fill-rule="evenodd"  fill="rgb(47, 173, 53)"
          d="M95.516,68.656 C97.388,68.656 98.906,70.181 98.906,72.062 C98.906,73.944 97.388,75.469 95.516,75.469 C93.643,75.469 92.125,73.944 92.125,72.062 C92.125,70.181 93.643,68.656 95.516,68.656 Z"/>
    <path fill-rule="evenodd"  fill="rgb(47, 173, 53)"
          d="M106.078,93.625 C107.951,93.625 109.469,95.143 109.469,97.016 C109.469,98.888 107.951,100.406 106.078,100.406 C104.206,100.406 102.688,98.888 102.688,97.016 C102.688,95.143 104.206,93.625 106.078,93.625 Z"/>
    <path fill-rule="evenodd"  fill="rgb(47, 173, 53)"
          d="M118.922,64.875 C120.794,64.875 122.312,66.400 122.312,68.281 C122.312,70.162 120.794,71.687 118.922,71.687 C117.049,71.687 115.531,70.162 115.531,68.281 C115.531,66.400 117.049,64.875 118.922,64.875 Z"/>
    <path fill-rule="evenodd"  fill="rgb(47, 173, 53)"
          d="M135.531,114.031 C137.412,114.031 138.937,115.549 138.937,117.422 C138.937,119.294 137.412,120.812 135.531,120.812 C133.650,120.812 132.125,119.294 132.125,117.422 C132.125,115.549 133.650,114.031 135.531,114.031 Z"/>
    <path fill-rule="evenodd"  fill="rgb(47, 173, 53)"
          d="M168.000,28.594 C169.881,28.594 171.406,30.119 171.406,32.000 C171.406,33.881 169.881,35.406 168.000,35.406 C166.119,35.406 164.594,33.881 164.594,32.000 C164.594,30.119 166.119,28.594 168.000,28.594 Z"/>
    <path fill-rule="evenodd"  opacity="0.502" fill="rgb(47, 173, 53)"
          d="M167.984,24.812 C171.945,24.812 175.156,28.030 175.156,32.000 C175.156,35.970 171.945,39.187 167.984,39.187 C164.023,39.187 160.813,35.970 160.813,32.000 C160.813,28.030 164.023,24.812 167.984,24.812 Z"/>
    <path fill-rule="evenodd"  fill="rgb(47, 173, 53)"
          d="M184.609,78.500 C186.482,78.500 188.000,80.025 188.000,81.906 C188.000,83.787 186.482,85.312 184.609,85.312 C182.737,85.312 181.219,83.787 181.219,81.906 C181.219,80.025 182.737,78.500 184.609,78.500 Z"/>
    <path fill-rule="evenodd"  fill="rgb(47, 173, 53)"
          d="M205.750,47.500 C207.631,47.500 209.156,49.025 209.156,50.906 C209.156,52.787 207.631,54.312 205.750,54.312 C203.869,54.312 202.344,52.787 202.344,50.906 C202.344,49.025 203.869,47.500 205.750,47.500 Z"/>
    <path fill-rule="evenodd"  fill="rgb(47, 173, 53)"
          d="M220.094,74.719 C221.975,74.719 223.500,76.244 223.500,78.125 C223.500,80.006 221.975,81.531 220.094,81.531 C218.213,81.531 216.688,80.006 216.688,78.125 C216.688,76.244 218.213,74.719 220.094,74.719 Z"/>
    <path fill-rule="evenodd"  fill="rgb(47, 173, 53)"
          d="M235.953,50.531 C237.826,50.531 239.344,52.049 239.344,53.922 C239.344,55.794 237.826,57.312 235.953,57.312 C234.081,57.312 232.563,55.794 232.563,53.922 C232.563,52.049 234.081,50.531 235.953,50.531 Z"/>
    <path fill-rule="evenodd"  fill="rgb(47, 173, 53)"
          d="M258.609,33.125 C260.482,33.125 262.000,34.650 262.000,36.531 C262.000,38.412 260.482,39.937 258.609,39.937 C256.737,39.937 255.219,38.412 255.219,36.531 C255.219,34.650 256.737,33.125 258.609,33.125 Z"/>
    <path fill-rule="evenodd"  fill="rgb(49, 49, 49)"
          d="M188.685,17.000 L169.221,17.000 L167.221,20.287 L165.230,17.000 L150.315,17.000 C145.723,17.000 142.000,13.277 142.000,8.685 L142.000,8.315 C142.000,3.723 145.723,-0.000 150.315,-0.000 L188.685,-0.000 C193.277,-0.000 197.000,3.723 197.000,8.315 L197.000,8.685 C197.000,13.277 193.277,17.000 188.685,17.000 Z"/>
    <text kerning="auto" fill="rgb(0, 0, 0)" transform="matrix( 0.75504322766571, 0, 0, 0.75594833446635,153.056884726225, 11.0237933378654)" font-size="10.583px"><tspan font-size="10.583px" font-family="Open Sans" fill="#FFFFFF">Orders&#58;&#49;&#50;</tspan></text>
</svg>