<svg
        xmlns="http://www.w3.org/2000/svg"
        xmlns:xlink="http://www.w3.org/1999/xlink"
        width="11px" height="13px">
    <path fill-rule="evenodd"  fill="rgb(193, 193, 193)"
          d="M10.439,5.412 C10.398,5.412 10.398,5.370 10.358,5.370 L1.944,0.251 C1.665,0.084 1.430,-0.001 1.150,-0.001 C0.595,-0.001 0.000,0.461 0.000,1.467 L0.000,11.532 C0.041,12.538 0.595,13.000 1.191,13.000 C1.470,13.000 1.745,12.915 2.025,12.747 L10.079,7.839 C10.674,7.505 10.953,7.043 10.990,6.538 C11.034,6.336 10.957,5.832 10.439,5.412 ZM1.470,11.326 L1.470,1.762 L9.289,6.542 L1.470,11.326 Z"/>
</svg>