<svg
        xmlns="http://www.w3.org/2000/svg"
        xmlns:xlink="http://www.w3.org/1999/xlink"
        width="15px" height="15px">
    <path fill-rule="evenodd"
          d="M7.500,15.000 C3.361,15.000 -0.000,11.638 -0.000,7.500 C-0.000,3.361 3.361,-0.000 7.500,-0.000 C11.638,-0.000 15.000,3.361 15.000,7.500 C15.000,11.638 11.638,15.000 7.500,15.000 ZM7.500,1.084 C3.967,1.084 1.084,3.967 1.084,7.500 C1.084,11.033 3.967,13.915 7.500,13.915 C11.033,13.915 13.916,11.033 13.916,7.500 C13.916,3.967 11.033,1.084 7.500,1.084 ZM7.364,11.250 C4.509,11.250 3.994,9.298 3.967,9.217 L5.024,8.954 L5.024,8.945 C5.042,9.000 5.395,10.166 7.373,10.166 C9.416,10.166 9.985,8.927 10.012,8.873 C10.120,8.593 10.437,8.467 10.717,8.584 C10.988,8.702 11.123,9.018 11.006,9.298 C10.970,9.370 10.157,11.250 7.364,11.250 ZM9.542,6.271 C9.307,6.271 9.099,6.180 8.937,6.018 C8.602,5.683 8.602,5.141 8.937,4.807 C9.099,4.644 9.316,4.554 9.542,4.554 C9.768,4.554 9.985,4.644 10.147,4.807 C10.482,5.141 10.482,5.683 10.147,6.018 C9.985,6.180 9.768,6.271 9.542,6.271 ZM5.241,6.271 C5.015,6.271 4.798,6.180 4.635,6.018 C4.301,5.683 4.301,5.141 4.635,4.807 C4.798,4.644 5.015,4.554 5.241,4.554 C5.467,4.554 5.684,4.644 5.846,4.807 C6.181,5.141 6.181,5.683 5.846,6.018 C5.684,6.180 5.467,6.271 5.241,6.271 Z"/>
</svg>