<svg
        xmlns="http://www.w3.org/2000/svg"
        xmlns:xlink="http://www.w3.org/1999/xlink"
        width="16px" height="14px">
    <path fill-rule="evenodd"
          d="M15.549,0.465 C15.247,0.154 14.885,-0.002 14.462,-0.002 L1.538,-0.002 C1.115,-0.002 0.753,0.154 0.451,0.465 C0.150,0.777 -0.001,1.152 -0.001,1.590 L-0.001,12.410 C-0.001,12.848 0.150,13.222 0.451,13.534 C0.753,13.846 1.115,14.001 1.538,14.001 L14.462,14.001 C14.885,14.001 15.247,13.846 15.549,13.534 C15.850,13.222 16.000,12.848 16.000,12.410 L16.000,1.590 C16.000,1.152 15.850,0.777 15.549,0.465 ZM4.923,12.410 C4.923,12.503 4.894,12.579 4.836,12.639 C4.779,12.698 4.705,12.728 4.615,12.728 L1.538,12.728 C1.448,12.728 1.375,12.698 1.317,12.639 C1.259,12.579 1.230,12.503 1.230,12.410 L1.230,10.500 C1.230,10.407 1.259,10.331 1.317,10.272 C1.375,10.212 1.448,10.182 1.538,10.182 L4.615,10.182 C4.705,10.182 4.779,10.212 4.836,10.272 C4.894,10.331 4.923,10.407 4.923,10.500 L4.923,12.410 ZM4.923,8.591 C4.923,8.684 4.894,8.760 4.836,8.820 C4.779,8.879 4.705,8.909 4.615,8.909 L1.538,8.909 C1.448,8.909 1.375,8.879 1.317,8.820 C1.259,8.760 1.230,8.684 1.230,8.591 L1.230,6.681 C1.230,6.588 1.259,6.512 1.317,6.453 C1.375,6.393 1.448,6.363 1.538,6.363 L4.615,6.363 C4.705,6.363 4.779,6.393 4.836,6.453 C4.894,6.512 4.923,6.588 4.923,6.681 L4.923,8.591 ZM4.923,4.772 C4.923,4.865 4.894,4.941 4.836,5.001 C4.779,5.060 4.705,5.090 4.615,5.090 L1.538,5.090 C1.448,5.090 1.375,5.060 1.317,5.001 C1.259,4.941 1.230,4.865 1.230,4.772 L1.230,2.862 C1.230,2.770 1.259,2.693 1.317,2.634 C1.375,2.574 1.448,2.544 1.538,2.544 L4.615,2.544 C4.705,2.544 4.779,2.574 4.836,2.634 C4.894,2.693 4.923,2.770 4.923,2.862 L4.923,4.772 ZM9.846,12.410 C9.846,12.503 9.817,12.579 9.760,12.639 C9.702,12.698 9.629,12.728 9.539,12.728 L6.461,12.728 C6.372,12.728 6.298,12.698 6.240,12.639 C6.182,12.579 6.154,12.503 6.154,12.410 L6.154,10.500 C6.154,10.407 6.182,10.331 6.240,10.272 C6.298,10.212 6.372,10.182 6.461,10.182 L9.539,10.182 C9.628,10.182 9.702,10.212 9.760,10.272 C9.817,10.331 9.846,10.407 9.846,10.500 L9.846,12.410 L9.846,12.410 ZM9.846,8.591 C9.846,8.684 9.817,8.760 9.760,8.820 C9.702,8.879 9.629,8.909 9.539,8.909 L6.461,8.909 C6.372,8.909 6.298,8.879 6.240,8.820 C6.182,8.760 6.154,8.684 6.154,8.591 L6.154,6.681 C6.154,6.588 6.182,6.512 6.240,6.453 C6.298,6.393 6.372,6.363 6.461,6.363 L9.539,6.363 C9.628,6.363 9.702,6.393 9.760,6.453 C9.817,6.512 9.846,6.588 9.846,6.681 L9.846,8.591 L9.846,8.591 ZM9.846,4.772 C9.846,4.865 9.817,4.941 9.760,5.001 C9.702,5.060 9.629,5.090 9.539,5.090 L6.461,5.090 C6.372,5.090 6.298,5.060 6.240,5.001 C6.182,4.941 6.154,4.865 6.154,4.772 L6.154,2.862 C6.154,2.770 6.182,2.693 6.240,2.634 C6.298,2.574 6.372,2.544 6.461,2.544 L9.539,2.544 C9.628,2.544 9.702,2.574 9.760,2.634 C9.817,2.693 9.846,2.770 9.846,2.862 L9.846,4.772 L9.846,4.772 ZM14.770,12.410 C14.770,12.503 14.741,12.579 14.683,12.639 C14.625,12.698 14.552,12.728 14.462,12.728 L11.385,12.728 C11.295,12.728 11.221,12.698 11.164,12.639 C11.106,12.579 11.078,12.503 11.078,12.410 L11.078,10.500 C11.078,10.407 11.106,10.331 11.164,10.272 C11.221,10.212 11.295,10.182 11.385,10.182 L14.462,10.182 C14.552,10.182 14.625,10.212 14.683,10.272 C14.741,10.331 14.770,10.407 14.770,10.500 L14.770,12.410 ZM14.770,8.591 C14.770,8.684 14.741,8.760 14.683,8.820 C14.625,8.879 14.552,8.909 14.462,8.909 L11.385,8.909 C11.295,8.909 11.221,8.879 11.164,8.820 C11.106,8.760 11.078,8.684 11.078,8.591 L11.078,6.681 C11.078,6.588 11.106,6.512 11.164,6.453 C11.221,6.393 11.295,6.363 11.385,6.363 L14.462,6.363 C14.552,6.363 14.625,6.393 14.683,6.453 C14.741,6.512 14.770,6.588 14.770,6.681 L14.770,8.591 ZM14.770,4.772 C14.770,4.865 14.741,4.941 14.683,5.001 C14.625,5.060 14.552,5.090 14.462,5.090 L11.385,5.090 C11.295,5.090 11.221,5.060 11.164,5.001 C11.106,4.941 11.078,4.865 11.078,4.772 L11.078,2.862 C11.078,2.770 11.106,2.693 11.164,2.634 C11.221,2.574 11.295,2.544 11.385,2.544 L14.462,2.544 C14.552,2.544 14.625,2.574 14.683,2.634 C14.741,2.693 14.770,2.770 14.770,2.862 L14.770,4.772 Z"/>
</svg>