<svg
        xmlns="http://www.w3.org/2000/svg"
        xmlns:xlink="http://www.w3.org/1999/xlink"
        width="37px" height="39px">
    <path transform="translate(24,0)" fill-rule="evenodd" stroke="rgb(49, 49, 49)" stroke-width="2px"
          fill="rgb(29, 189, 144)"
          d="M6.469,1.000 C9.316,1.000 11.625,3.280 11.625,6.094 C11.625,8.907 9.316,11.187 6.469,11.187 C3.621,11.187 1.313,8.907 1.313,6.094 C1.313,3.280 3.621,1.000 6.469,1.000 Z"/>
    <path transform="translate(28,4)" fill-rule="evenodd" fill="rgb(255, 255, 255)"
          d="M4.143,0.669 L1.945,2.986 L0.786,1.933 C0.683,1.839 0.520,1.843 0.421,1.941 C0.322,2.039 0.327,2.193 0.430,2.286 L1.778,3.514 C1.825,3.559 1.889,3.583 1.958,3.583 C1.962,3.583 1.962,3.583 1.967,3.583 C2.035,3.579 2.104,3.551 2.147,3.502 L4.525,0.998 C4.620,0.896 4.611,0.742 4.504,0.652 C4.401,0.559 4.238,0.567 4.143,0.669 Z"/>
</svg>