<svg
        xmlns="http://www.w3.org/2000/svg"
        xmlns:xlink="http://www.w3.org/1999/xlink"
        width="15px" height="11px">
    <path fill-rule="evenodd"  fill="rgb(84, 84, 84)"
          d="M14.357,6.147 L0.643,6.147 C0.289,6.147 -0.000,5.856 -0.000,5.500 C-0.000,5.144 0.289,4.853 0.643,4.853 L14.357,4.853 C14.711,4.853 15.000,5.144 15.000,5.500 C15.000,5.856 14.711,6.147 14.357,6.147 ZM14.357,1.294 L0.643,1.294 C0.289,1.294 -0.000,1.002 -0.000,0.646 C-0.000,0.291 0.289,-0.000 0.643,-0.000 L14.357,-0.000 C14.711,-0.000 15.000,0.291 15.000,0.646 C15.000,1.002 14.711,1.294 14.357,1.294 ZM0.643,9.705 L14.357,9.705 C14.711,9.705 15.000,9.997 15.000,10.353 C15.000,10.708 14.711,11.000 14.357,11.000 L0.643,11.000 C0.289,11.000 -0.000,10.708 -0.000,10.353 C-0.000,9.997 0.289,9.705 0.643,9.705 Z"/>
</svg>