<svg
        xmlns="http://www.w3.org/2000/svg"
        xmlns:xlink="http://www.w3.org/1999/xlink"
        width="27px" height="40px">
    <path fill-rule="evenodd"  fill="rgb(0, 0, 0)"
          d="M24.304,40.002 L1.727,40.002 C0.797,40.002 0.015,39.229 0.015,38.273 L0.015,9.837 C0.015,8.882 0.797,8.111 1.727,8.111 L4.534,8.111 L4.534,7.362 C4.534,5.887 5.698,4.692 7.133,4.692 L8.375,4.692 C8.411,2.089 10.478,-0.002 13.015,-0.002 C15.552,-0.002 17.619,2.089 17.654,4.692 L18.897,4.692 C20.332,4.692 21.496,5.887 21.496,7.362 L21.496,8.111 L24.301,8.111 C25.233,8.111 26.014,8.882 26.017,9.836 L26.017,38.273 C26.017,39.229 25.234,40.002 24.304,40.002 ZM13.015,2.493 C11.818,2.493 10.841,3.473 10.805,4.692 L15.224,4.692 C15.189,3.473 14.212,2.493 13.015,2.493 ZM23.874,10.224 L21.496,10.224 L21.496,12.176 L4.534,12.176 L4.534,10.224 L2.156,10.224 L2.156,37.884 L23.874,37.884 L23.874,10.224 ZM5.367,16.451 C5.613,16.171 6.028,16.132 6.318,16.365 L7.492,17.304 L10.340,14.380 C10.701,14.009 11.286,14.009 11.648,14.380 L12.058,14.800 C12.232,14.978 12.329,15.220 12.329,15.472 C12.329,15.724 12.232,15.965 12.058,16.143 L8.470,19.824 C8.026,20.282 7.318,20.324 6.824,19.923 L4.777,18.265 C4.625,18.143 4.530,17.961 4.513,17.763 C4.497,17.563 4.562,17.367 4.690,17.219 L5.367,16.451 ZM5.367,23.610 C5.613,23.330 6.028,23.291 6.318,23.524 L7.492,24.462 L10.342,21.538 C10.704,21.167 11.289,21.167 11.650,21.538 L12.060,21.957 C12.234,22.135 12.331,22.379 12.331,22.630 C12.331,22.881 12.234,23.123 12.060,23.301 L8.472,26.985 C8.027,27.439 7.319,27.483 6.824,27.082 L4.777,25.424 C4.625,25.302 4.530,25.119 4.513,24.922 C4.497,24.722 4.562,24.526 4.690,24.378 L5.367,23.610 ZM5.367,30.522 C5.613,30.243 6.028,30.204 6.318,30.437 L7.492,31.377 L10.341,28.452 C10.515,28.273 10.750,28.173 10.996,28.173 C11.242,28.173 11.476,28.273 11.650,28.452 L12.060,28.872 C12.421,29.245 12.421,29.843 12.060,30.215 L8.472,33.896 C8.027,34.354 7.319,34.396 6.824,33.997 L4.777,32.337 C4.625,32.215 4.529,32.034 4.513,31.834 C4.496,31.634 4.562,31.439 4.690,31.292 L5.367,30.522 ZM15.398,15.839 L20.864,15.839 C21.726,15.839 22.425,16.496 22.425,17.381 C22.425,18.267 21.726,18.927 20.864,18.927 L15.398,18.927 C14.536,18.927 13.837,18.267 13.837,17.381 C13.837,16.496 14.536,15.839 15.398,15.839 ZM15.398,22.996 L20.864,22.996 C21.726,22.996 22.425,23.659 22.425,24.542 C22.425,25.424 21.726,26.087 20.864,26.087 L15.398,26.087 C14.536,26.087 13.837,25.424 13.837,24.542 C13.837,23.657 14.536,22.996 15.398,22.996 ZM15.398,29.910 L20.864,29.910 C21.726,29.910 22.425,30.571 22.425,31.456 C22.425,32.341 21.726,33.002 20.864,33.002 L15.398,33.002 C14.536,33.002 13.837,32.341 13.837,31.456 C13.837,30.571 14.536,29.910 15.398,29.910 Z"/>
</svg>