<svg
        xmlns="http://www.w3.org/2000/svg"
        xmlns:xlink="http://www.w3.org/1999/xlink"
        width="30px" height="26px">
    <path fill-rule="evenodd"  fill="rgb(84, 84, 84)"
          d="M18.270,13.674 L13.817,13.674 L13.817,9.823 C13.817,8.822 13.046,7.999 12.108,7.999 L1.709,7.999 C0.771,7.999 -0.000,8.822 -0.000,9.823 L-0.000,16.498 C-0.000,17.499 0.771,18.321 1.709,18.321 L2.721,18.321 L3.996,20.145 C4.067,20.273 4.212,20.325 4.357,20.325 C4.502,20.325 4.622,20.249 4.718,20.145 L5.993,18.321 L6.184,18.321 L6.184,22.172 C6.184,23.173 6.955,23.996 7.894,23.996 L14.007,23.996 L15.282,25.819 C15.353,25.947 15.498,25.999 15.643,25.999 C15.788,25.999 15.908,25.924 16.004,25.819 L17.279,23.996 L18.290,23.996 C19.229,23.996 20.000,23.173 20.000,22.172 L20.000,15.497 C20.002,14.494 19.233,13.674 18.270,13.674 ZM5.754,17.370 C5.609,17.370 5.489,17.447 5.393,17.551 L4.335,19.039 L3.276,17.551 C3.205,17.423 3.060,17.370 2.915,17.370 L1.662,17.370 C1.206,17.370 0.844,16.985 0.844,16.498 L0.844,9.823 C0.844,9.336 1.206,8.950 1.662,8.950 L12.061,8.950 C12.518,8.950 12.879,9.336 12.879,9.823 L12.879,14.161 L12.879,16.498 C12.879,16.985 12.518,17.370 12.061,17.370 L6.619,17.370 L5.754,17.370 L5.754,17.370 ZM19.113,22.172 C19.113,22.660 18.752,23.045 18.295,23.045 L17.042,23.045 C16.897,23.045 16.777,23.121 16.681,23.225 L15.623,24.714 L14.564,23.225 C14.493,23.097 14.348,23.045 14.203,23.045 L7.896,23.045 C7.439,23.045 7.078,22.660 7.078,22.172 L7.078,18.321 L12.108,18.321 C12.445,18.321 12.759,18.219 13.022,18.039 L16.391,18.039 C16.632,18.039 16.824,17.834 16.824,17.577 C16.824,17.321 16.632,17.116 16.391,17.116 L13.744,17.116 C13.815,16.935 13.840,16.731 13.840,16.500 L13.840,14.651 L18.293,14.651 C18.749,14.651 19.110,15.036 19.110,15.523 L19.110,22.172 L19.113,22.172 ZM16.802,20.221 C16.802,20.477 16.610,20.682 16.369,20.682 L9.821,20.682 C9.581,20.682 9.389,20.477 9.389,20.221 C9.389,19.964 9.581,19.759 9.821,19.759 L16.369,19.759 C16.608,19.757 16.802,19.964 16.802,20.221 ZM10.133,15.007 L3.610,15.007 C3.370,15.007 3.178,14.803 3.178,14.546 C3.178,14.290 3.370,14.085 3.610,14.085 L10.133,14.085 C10.374,14.085 10.566,14.290 10.566,14.546 C10.590,14.803 10.374,15.007 10.133,15.007 ZM3.178,11.877 C3.178,11.620 3.370,11.416 3.610,11.416 L7.533,11.416 C7.773,11.416 7.965,11.620 7.965,11.877 C7.965,12.133 7.773,12.338 7.533,12.338 L3.610,12.338 C3.370,12.338 3.178,12.133 3.178,11.877 Z"/>
    <path fill-rule="evenodd"  fill="rgb(244, 70, 71)"
          d="M20.000,-0.000 C25.523,-0.000 30.000,4.477 30.000,10.000 C30.000,15.522 25.523,20.000 20.000,20.000 C14.477,20.000 10.000,15.522 10.000,10.000 C10.000,4.477 14.477,-0.000 20.000,-0.000 Z"/>
    <text kerning="auto" font-family="Myriad Hebrew" fill="rgb(0, 0, 0)" font-size="11px" x="17px" y="14px"><tspan font-size="11px" font-family="'Lato', sans-serif" font-weight="bold" fill="#FFFFFF">&#53;</tspan></text>
</svg>