<svg
        xmlns="http://www.w3.org/2000/svg"
        xmlns:xlink="http://www.w3.org/1999/xlink"
        width="16px" height="16px">
    <path fill-rule="evenodd"  fill="rgb(84, 84, 84)"
          d="M15.671,16.000 L13.207,16.000 C13.025,16.000 12.878,15.853 12.878,15.672 C12.878,15.491 13.025,15.344 13.207,15.344 L14.900,15.344 L9.604,10.062 C9.475,9.934 9.475,9.727 9.604,9.599 C9.732,9.471 9.940,9.471 10.068,9.599 L15.343,14.858 L15.343,13.214 C15.343,13.033 15.490,12.886 15.671,12.886 C15.853,12.886 16.000,13.033 16.000,13.214 L16.000,15.650 L16.000,15.650 L16.000,15.672 C16.000,15.853 15.853,16.000 15.671,16.000 ZM15.671,3.113 C15.490,3.113 15.343,2.966 15.343,2.785 L15.343,1.141 L10.068,6.401 C9.940,6.529 9.732,6.529 9.604,6.401 C9.475,6.273 9.475,6.065 9.604,5.937 L14.900,0.655 L13.207,0.655 C13.025,0.655 12.878,0.509 12.878,0.328 C12.878,0.147 13.025,-0.000 13.207,-0.000 L15.671,-0.000 C15.853,-0.000 16.000,0.147 16.000,0.328 L16.000,0.350 L16.000,0.350 L16.000,2.785 C16.000,2.966 15.853,3.113 15.671,3.113 ZM1.100,15.344 L2.793,15.344 C2.975,15.344 3.122,15.491 3.122,15.672 C3.122,15.853 2.975,16.000 2.793,16.000 L0.329,16.000 C0.147,16.000 -0.000,15.853 -0.000,15.672 L-0.000,15.650 L-0.000,15.650 L-0.000,13.214 C-0.000,13.033 0.147,12.886 0.329,12.886 C0.510,12.886 0.657,13.033 0.657,13.214 L0.657,14.858 L5.932,9.599 C6.060,9.471 6.268,9.471 6.396,9.599 C6.525,9.727 6.525,9.934 6.396,10.062 L1.100,15.344 ZM5.932,6.401 L0.657,1.141 L0.657,2.785 C0.657,2.966 0.510,3.113 0.329,3.113 C0.147,3.113 -0.000,2.966 -0.000,2.785 L-0.000,0.350 L-0.000,0.350 L-0.000,0.328 C-0.000,0.147 0.147,-0.000 0.329,-0.000 L2.793,-0.000 C2.975,-0.000 3.122,0.147 3.122,0.328 C3.122,0.509 2.975,0.655 2.793,0.655 L1.100,0.655 L6.396,5.937 C6.525,6.066 6.525,6.273 6.396,6.401 C6.268,6.529 6.060,6.529 5.932,6.401 Z"/>
</svg>