<svg
        xmlns="http://www.w3.org/2000/svg"
        xmlns:xlink="http://www.w3.org/1999/xlink"
        width="27px" height="28px">
    <path fill-rule="evenodd"  fill="rgb(84, 84, 84)"
          d="M16.332,23.794 C14.804,22.466 13.389,20.592 13.389,15.913 C13.389,13.204 11.196,10.999 8.500,10.999 C5.804,10.999 3.610,13.204 3.610,15.913 C3.610,20.597 2.196,22.469 0.667,23.796 C0.243,24.167 -0.000,24.702 -0.000,25.263 C-0.000,25.572 0.249,25.822 0.556,25.822 L5.834,25.822 C6.092,27.064 7.189,28.000 8.500,28.000 C9.811,28.000 10.908,27.064 11.165,25.822 L16.444,25.822 C16.751,25.822 17.000,25.572 17.000,25.263 C17.000,24.697 16.756,24.162 16.332,23.794 ZM8.500,26.882 C7.807,26.882 7.215,26.440 6.988,25.822 L10.011,25.822 C9.784,26.440 9.193,26.882 8.500,26.882 ZM1.331,24.704 C1.352,24.682 1.373,24.661 1.396,24.641 C3.728,22.617 4.722,20.007 4.722,15.913 C4.722,13.820 6.417,12.117 8.500,12.117 C10.583,12.117 12.277,13.820 12.277,15.913 C12.277,20.003 13.272,22.614 15.605,24.641 C15.628,24.661 15.649,24.682 15.669,24.704 L1.331,24.704 Z"/>
    <path fill-rule="evenodd"  fill="rgb(244, 70, 71)"
          d="M17.000,-0.000 C22.523,-0.000 27.000,4.477 27.000,10.000 C27.000,15.522 22.523,20.000 17.000,20.000 C11.477,20.000 7.000,15.522 7.000,10.000 C7.000,4.477 11.477,-0.000 17.000,-0.000 Z"/>
    <text kerning="auto" font-family="Myriad Hebrew" fill="rgb(0, 0, 0)" font-size="11px" x="14px" y="14px"><tspan font-size="11px" font-family="Lato" font-weight="bold" fill="#FFFFFF">&#53;</tspan></text>
</svg>