<svg
        xmlns="http://www.w3.org/2000/svg"
        xmlns:xlink="http://www.w3.org/1999/xlink"
        width="29px" height="32px">
    <path fill-rule="evenodd"  fill="rgb(84, 84, 84)"
          d="M10.096,30.500 L8.182,30.500 C7.894,30.500 7.794,30.501 6.812,28.048 L6.054,27.737 C3.989,28.682 3.745,28.682 3.663,28.682 L3.505,28.682 L3.370,28.566 L2.013,27.226 C1.807,27.019 1.736,26.946 2.797,24.526 L2.488,23.788 C-0.005,22.887 -0.005,22.782 -0.005,22.485 L-0.005,20.592 C-0.005,20.296 -0.005,20.202 2.480,19.233 L2.789,18.493 C1.666,16.110 1.743,16.035 1.965,15.825 L3.424,14.382 L3.605,14.376 C3.826,14.376 4.643,14.677 6.036,15.271 L6.792,14.961 C7.702,12.499 7.814,12.499 8.101,12.499 L10.015,12.499 C10.302,12.499 10.402,12.499 11.384,14.953 L12.143,15.261 C14.205,14.317 14.452,14.317 14.535,14.317 L14.692,14.317 L14.827,14.432 L16.183,15.769 C16.390,15.979 16.460,16.051 15.399,18.473 L15.708,19.215 C18.204,20.112 18.204,20.216 18.204,20.514 L18.204,22.405 C18.204,22.694 18.204,22.796 15.716,23.766 L15.410,24.506 C16.527,26.880 16.453,26.954 16.244,27.167 L14.774,28.619 L14.591,28.624 C14.372,28.624 13.557,28.323 12.165,27.728 L11.405,28.038 C10.492,30.500 10.389,30.500 10.096,30.500 ZM8.381,29.719 L9.890,29.719 C10.064,29.362 10.438,28.418 10.738,27.604 L10.799,27.442 L12.173,26.882 L12.321,26.945 C13.140,27.298 14.109,27.688 14.486,27.809 L15.547,26.762 C15.412,26.385 15.004,25.463 14.635,24.685 L14.561,24.527 L15.129,23.157 L15.284,23.097 C16.112,22.776 17.071,22.378 17.429,22.198 L17.429,20.728 C17.066,20.555 16.111,20.189 15.288,19.895 L15.127,19.837 L14.555,18.466 L14.623,18.311 C14.975,17.509 15.367,16.563 15.492,16.182 L14.429,15.133 C14.085,15.254 13.124,15.670 12.313,16.043 L12.162,16.113 L10.788,15.554 L10.726,15.400 C10.401,14.582 9.998,13.633 9.815,13.282 L8.307,13.282 C8.133,13.637 7.760,14.582 7.460,15.395 L7.401,15.556 L6.030,16.118 L5.882,16.054 C5.061,15.702 4.091,15.313 3.712,15.192 L2.653,16.240 C2.786,16.616 3.196,17.538 3.563,18.315 L3.638,18.474 L3.067,19.843 L2.913,19.903 C2.087,20.224 1.130,20.620 0.771,20.800 L0.771,22.273 C1.134,22.445 2.088,22.813 2.910,23.109 L3.070,23.167 L3.643,24.534 L3.574,24.688 C3.222,25.489 2.831,26.434 2.705,26.814 L3.771,27.866 C4.113,27.745 5.073,27.329 5.885,26.955 L6.037,26.885 L7.409,27.448 L7.470,27.602 C7.796,28.420 8.199,29.367 8.381,29.719 ZM9.100,24.650 C7.345,24.650 5.915,23.237 5.915,21.499 C5.915,19.763 7.344,18.351 9.100,18.351 C10.854,18.351 12.280,19.764 12.280,21.499 C12.280,23.237 10.854,24.650 9.100,24.650 ZM9.100,19.133 C7.771,19.133 6.691,20.195 6.691,21.499 C6.691,22.805 7.771,23.867 9.100,23.867 C10.426,23.867 11.505,22.805 11.505,21.499 C11.505,20.195 10.426,19.133 9.100,19.133 Z"/>
    <path fill-rule="evenodd"  fill="rgb(244, 70, 71)"
          d="M15.500,8.500 C17.433,8.500 19.000,10.067 19.000,12.000 C19.000,13.933 17.433,15.500 15.500,15.500 C13.567,15.500 12.000,13.933 12.000,12.000 C12.000,10.067 13.567,8.500 15.500,8.500 Z"/>
    <path fill-rule="evenodd"  stroke="rgb(244, 70, 71)" stroke-width="3px" stroke-linecap="butt" stroke-linejoin="miter" opacity="0.4" fill="none"
          d="M15.500,1.500 C21.299,1.500 26.000,6.201 26.000,12.000 C26.000,17.799 21.299,22.500 15.500,22.500 C9.701,22.500 5.000,17.799 5.000,12.000 C5.000,6.201 9.701,1.500 15.500,1.500 Z"/>
</svg>