<svg
        xmlns="http://www.w3.org/2000/svg"
        xmlns:xlink="http://www.w3.org/1999/xlink"
        width="16px" height="15px">
    <path fill-rule="evenodd"  fill="rgb(255, 255, 255)"
          d="M14.649,12.657 L13.561,12.657 C13.567,12.649 13.575,12.640 13.580,12.632 L12.230,11.259 L12.947,10.528 L14.162,11.761 C14.772,10.695 15.125,9.461 15.125,8.139 C15.125,8.075 15.117,8.017 15.115,7.954 L13.467,7.954 L13.467,6.921 L15.015,6.919 C14.812,5.706 14.316,4.597 13.598,3.670 L12.474,4.811 L11.755,4.081 L12.912,2.903 C11.710,1.736 10.107,0.999 8.333,0.916 L8.333,2.790 L7.315,2.791 L7.315,0.934 C5.727,1.088 4.296,1.776 3.184,2.814 L4.316,3.964 L3.597,4.694 L2.481,3.561 C1.718,4.510 1.195,5.659 0.984,6.919 L2.474,6.919 L2.474,7.952 L0.884,7.954 C0.883,8.017 0.876,8.075 0.876,8.138 C0.876,9.466 1.233,10.707 1.847,11.777 L3.140,10.628 L3.810,11.407 L2.424,12.637 C2.429,12.643 2.433,12.651 2.439,12.657 L2.400,12.657 L2.372,12.683 L2.351,12.657 L1.352,12.657 C0.498,11.366 0.001,9.811 0.001,8.138 C0.001,3.649 3.582,0.011 7.999,0.011 C12.419,0.011 16.001,3.649 15.999,8.139 C15.999,9.812 15.501,11.366 14.649,12.657 ZM7.555,8.791 L5.007,5.568 L8.277,8.012 C8.676,8.012 8.999,8.340 8.999,8.744 C8.999,9.149 8.676,9.479 8.277,9.479 C7.894,9.479 7.579,9.175 7.555,8.791 ZM11.572,15.012 L4.364,15.012 L4.364,13.105 L11.572,13.105 L11.572,15.012 Z"/>
</svg>